<svg width="478" height="335" viewBox="0 0 478 335" fill="none" xmlns="http://www.w3.org/2000/svg">
<path d="M390.417 210.094H82.5571C80.4556 210.091 78.4408 209.256 76.9548 207.771C75.4688 206.285 74.6329 204.272 74.6305 202.171V12.4333C74.6322 10.8944 75.2446 9.4191 76.3332 8.33094C77.4219 7.24279 78.8979 6.63068 80.4376 6.62891H392.436C394.003 6.63069 395.504 7.25337 396.612 8.36034C397.719 9.46731 398.342 10.9682 398.344 12.5336V202.171C398.341 204.272 397.506 206.285 396.02 207.771C394.534 209.256 392.519 210.091 390.417 210.094Z" fill="#F2F2F2"/>
<path d="M379.187 198.874H92.2692C88.0632 198.874 84.6415 195.671 84.6415 191.735V26.5087C84.6415 23.5892 87.1771 21.214 90.2938 21.214H381.068C384.237 21.214 386.814 23.6284 386.814 26.5959V191.735C386.814 195.671 383.393 198.874 379.187 198.874Z" fill="white"/>
<path d="M398.233 11.9801H74.5192V7.94659C74.5223 5.8391 75.3616 3.81888 76.853 2.32913C78.3444 0.83937 80.3662 0.00174113 82.4747 0H390.278C392.387 0.00173099 394.408 0.839356 395.9 2.32912C397.391 3.81887 398.23 5.8391 398.233 7.94659V11.9801Z" fill="#CCCCCC"/>
<path d="M88.9771 8.05878C90.1136 8.05878 91.0349 7.13795 91.0349 6.00205C91.0349 4.86614 90.1136 3.94531 88.9771 3.94531C87.8407 3.94531 86.9194 4.86614 86.9194 6.00205C86.9194 7.13795 87.8407 8.05878 88.9771 8.05878Z" fill="white"/>
<path d="M96.7879 8.05878C97.9243 8.05878 98.8456 7.13795 98.8456 6.00205C98.8456 4.86614 97.9243 3.94531 96.7879 3.94531C95.6514 3.94531 94.7301 4.86614 94.7301 6.00205C94.7301 7.13795 95.6514 8.05878 96.7879 8.05878Z" fill="white"/>
<path d="M104.599 8.05878C105.735 8.05878 106.656 7.13795 106.656 6.00205C106.656 4.86614 105.735 3.94531 104.599 3.94531C103.462 3.94531 102.541 4.86614 102.541 6.00205C102.541 7.13795 103.462 8.05878 104.599 8.05878Z" fill="white"/>
<path d="M347.606 171.163H125.257C123.028 171.16 120.891 170.274 119.315 168.699C117.739 167.124 116.853 164.988 116.85 162.76V55.6101C116.852 53.944 117.515 52.3466 118.694 51.1684C119.873 49.9902 121.471 49.3275 123.138 49.3256H349.625C351.318 49.3275 352.942 50.0008 354.14 51.1978C355.337 52.3948 356.011 54.0177 356.013 55.7105V162.76C356.01 164.988 355.124 167.124 353.548 168.699C351.972 170.274 349.835 171.16 347.606 171.163ZM123.138 50.2859C121.725 50.2875 120.371 50.849 119.373 51.8471C118.374 52.8452 117.813 54.1986 117.811 55.6101V162.76C117.813 164.733 118.598 166.625 119.994 168.02C121.39 169.416 123.283 170.2 125.257 170.203H347.606C349.58 170.2 351.473 169.416 352.869 168.02C354.265 166.625 355.05 164.733 355.052 162.76V55.7105C355.05 54.2723 354.478 52.8935 353.461 51.8765C352.443 50.8596 351.064 50.2875 349.625 50.2859H123.138Z" fill="#CCCCCC"/>
<path d="M132.944 162.76H339.919C341.958 162.76 343.913 161.951 345.355 160.51C346.796 159.069 347.606 157.115 347.606 155.078V65.5044C347.606 63.4668 346.796 61.5127 345.355 60.072C343.913 58.6312 341.958 57.8218 339.919 57.8218H132.944C130.905 57.8218 128.95 58.6312 127.509 60.072C126.067 61.5127 125.257 63.4668 125.257 65.5044V155.078C125.257 157.115 126.067 159.069 127.509 160.51C128.95 161.951 130.905 162.76 132.944 162.76Z" fill="#F2F2F2"/>
<path d="M156.445 83.8821C158.832 83.8821 160.768 81.9473 160.768 79.5606C160.768 77.1739 158.832 75.2391 156.445 75.2391C154.057 75.2391 152.121 77.1739 152.121 79.5606C152.121 81.9473 154.057 83.8821 156.445 83.8821Z" fill="#CCCCCC"/>
<path d="M156.445 100.207C158.832 100.207 160.768 98.2727 160.768 95.886C160.768 93.4994 158.832 91.5646 156.445 91.5646C154.057 91.5646 152.121 93.4994 152.121 95.886C152.121 98.2727 154.057 100.207 156.445 100.207Z" fill="#CCCCCC"/>
<path d="M156.445 116.533C158.832 116.533 160.768 114.598 160.768 112.212C160.768 109.825 158.832 107.89 156.445 107.89C154.057 107.89 152.121 109.825 152.121 112.212C152.121 114.598 154.057 116.533 156.445 116.533Z" fill="#CCCCCC"/>
<path d="M156.445 132.858C158.832 132.858 160.768 130.924 160.768 128.537C160.768 126.15 158.832 124.216 156.445 124.216C154.057 124.216 152.121 126.15 152.121 128.537C152.121 130.924 154.057 132.858 156.445 132.858Z" fill="#CCCCCC"/>
<path d="M320.262 80.0408H178.063C177.935 80.0408 177.813 79.9902 177.723 79.9001C177.633 79.8101 177.582 79.688 177.582 79.5606C177.582 79.4333 177.633 79.3111 177.723 79.2211C177.813 79.131 177.935 79.0804 178.063 79.0804H320.262C320.389 79.0804 320.511 79.131 320.601 79.2211C320.691 79.3111 320.742 79.4333 320.742 79.5606C320.742 79.688 320.691 79.8101 320.601 79.9001C320.511 79.9902 320.389 80.0408 320.262 80.0408Z" fill="#CCCCCC"/>
<path d="M320.262 96.3662H178.063C177.935 96.3662 177.813 96.3156 177.723 96.2256C177.633 96.1355 177.582 96.0134 177.582 95.886C177.582 95.7587 177.633 95.6366 177.723 95.5465C177.813 95.4565 177.935 95.4059 178.063 95.4059H320.262C320.389 95.4059 320.511 95.4565 320.601 95.5465C320.691 95.6366 320.742 95.7587 320.742 95.886C320.742 96.0134 320.691 96.1355 320.601 96.2256C320.511 96.3156 320.389 96.3662 320.262 96.3662Z" fill="#CCCCCC"/>
<path d="M320.262 112.692H178.063C177.935 112.692 177.813 112.641 177.723 112.551C177.633 112.461 177.582 112.339 177.582 112.212C177.582 112.084 177.633 111.962 177.723 111.872C177.813 111.782 177.935 111.731 178.063 111.731H320.262C320.389 111.731 320.511 111.782 320.601 111.872C320.691 111.962 320.742 112.084 320.742 112.212C320.742 112.339 320.691 112.461 320.601 112.551C320.511 112.641 320.389 112.692 320.262 112.692Z" fill="#CCCCCC"/>
<path d="M320.262 129.017H178.063C177.935 129.017 177.813 128.967 177.723 128.877C177.633 128.787 177.582 128.664 177.582 128.537C177.582 128.41 177.633 128.288 177.723 128.198C177.813 128.107 177.935 128.057 178.063 128.057H320.262C320.389 128.057 320.511 128.107 320.601 128.198C320.691 128.288 320.742 128.41 320.742 128.537C320.742 128.664 320.691 128.787 320.601 128.877C320.511 128.967 320.389 129.017 320.262 129.017Z" fill="#CCCCCC"/>
<path d="M204.965 145.343H191.034C190.397 145.342 189.786 145.089 189.336 144.639C188.886 144.189 188.632 143.578 188.632 142.942V129.978C188.632 129.341 188.886 128.731 189.336 128.281C189.786 127.831 190.397 127.578 191.034 127.577H204.965C205.602 127.578 206.213 127.831 206.663 128.281C207.113 128.731 207.366 129.341 207.367 129.978V142.942C207.366 143.578 207.113 144.189 206.663 144.639C206.213 145.089 205.602 145.342 204.965 145.343Z" fill="#6C63FF"/>
<path d="M236.191 145.343H222.26C221.623 145.342 221.012 145.089 220.562 144.639C220.112 144.189 219.858 143.578 219.858 142.942V113.652C219.858 113.016 220.112 112.405 220.562 111.955C221.012 111.505 221.623 111.252 222.26 111.251H236.191C236.828 111.252 237.439 111.505 237.889 111.955C238.339 112.405 238.593 113.016 238.593 113.652V142.942C238.593 143.578 238.339 144.189 237.889 144.639C237.439 145.089 236.828 145.342 236.191 145.343Z" fill="#6C63FF"/>
<path d="M267.898 145.343H253.966C253.329 145.342 252.719 145.089 252.269 144.639C251.818 144.189 251.565 143.579 251.564 142.942V97.3266C251.565 96.6901 251.818 96.0799 252.269 95.6298C252.719 95.1797 253.329 94.9265 253.966 94.9258H267.898C268.535 94.9265 269.145 95.1797 269.596 95.6298C270.046 96.0799 270.299 96.6901 270.3 97.3266V142.942C270.299 143.579 270.046 144.189 269.596 144.639C269.145 145.089 268.535 145.342 267.898 145.343Z" fill="#6C63FF"/>
<path d="M300.565 145.343H286.634C285.997 145.342 285.386 145.089 284.936 144.639C284.486 144.189 284.232 143.579 284.232 142.942V81.4813C284.232 80.8447 284.486 80.2345 284.936 79.7844C285.386 79.3344 285.997 79.0812 286.634 79.0804H300.565C301.202 79.0812 301.813 79.3344 302.263 79.7844C302.713 80.2345 302.967 80.8447 302.967 81.4813V142.942C302.967 143.579 302.713 144.189 302.263 144.639C301.813 145.089 301.202 145.342 300.565 145.343Z" fill="#6C63FF"/>
<path d="M320.262 145.343H178.063C177.935 145.343 177.813 145.292 177.723 145.202C177.633 145.112 177.582 144.99 177.582 144.863C177.582 144.735 177.633 144.613 177.723 144.523C177.813 144.433 177.935 144.382 178.063 144.382H320.262C320.389 144.382 320.511 144.433 320.601 144.523C320.691 144.613 320.742 144.735 320.742 144.863C320.742 144.99 320.691 145.112 320.601 145.202C320.511 145.292 320.389 145.343 320.262 145.343Z" fill="#3F3D56"/>
<path d="M382.737 234.916C383.126 234.327 383.64 233.83 384.242 233.461C384.844 233.092 385.52 232.86 386.221 232.78C386.923 232.7 387.634 232.775 388.303 232.999C388.973 233.224 389.585 233.592 390.097 234.079L405.352 226.209L404.403 235.075L390.062 241.189C389.188 241.994 388.048 242.45 386.859 242.472C385.67 242.493 384.515 242.078 383.612 241.304C382.709 240.531 382.121 239.454 381.96 238.276C381.799 237.099 382.075 235.903 382.737 234.916Z" fill="#FFB8B8"/>
<path d="M395.863 238.222C395.517 237.951 395.261 237.581 395.131 237.161L393.918 233.243C393.787 232.818 393.79 232.364 393.927 231.941C394.063 231.519 394.326 231.148 394.68 230.88L407.044 221.545L420.436 196.715C420.996 195.993 421.694 195.388 422.489 194.936C423.283 194.483 424.16 194.192 425.067 194.077C425.974 193.963 426.895 194.029 427.777 194.271C428.659 194.512 429.485 194.925 430.208 195.486C430.93 196.046 431.535 196.744 431.988 197.538C432.44 198.332 432.732 199.208 432.846 200.115C432.96 201.022 432.895 201.942 432.653 202.824C432.411 203.706 431.998 204.531 431.437 205.253L423.818 221.324C421.507 226.202 417.501 230.075 412.547 232.222L398.056 238.504C397.778 238.625 397.477 238.685 397.173 238.682C396.869 238.679 396.57 238.612 396.294 238.485C396.14 238.415 395.996 238.327 395.863 238.222Z" fill="#3F3D56"/>
<path d="M431.773 186.352C438.29 186.352 443.573 181.072 443.573 174.559C443.573 168.045 438.29 162.765 431.773 162.765C425.257 162.765 419.974 168.045 419.974 174.559C419.974 181.072 425.257 186.352 431.773 186.352Z" fill="#FFB8B8"/>
<path d="M426.987 329.265L421.098 329.265L418.297 306.559L426.99 306.559L426.987 329.265Z" fill="#FFB8B8"/>
<path d="M416.891 327.582H428.249V334.73H409.739C409.739 333.792 409.924 332.862 410.283 331.995C410.643 331.128 411.169 330.34 411.834 329.676C412.498 329.012 413.286 328.486 414.154 328.126C415.021 327.767 415.951 327.582 416.891 327.582Z" fill="#2F2E41"/>
<path d="M446.203 329.266L440.314 329.265L437.513 306.559L446.206 306.56L446.203 329.266Z" fill="#FFB8B8"/>
<path d="M436.107 327.583H447.465V334.731H428.955C428.955 333.793 429.14 332.863 429.499 331.996C429.859 331.129 430.386 330.341 431.05 329.677C431.714 329.013 432.502 328.487 433.37 328.127C434.238 327.768 435.168 327.583 436.107 327.583Z" fill="#2F2E41"/>
<path d="M446.634 323.504L439.732 323.504C439.256 323.503 438.795 323.346 438.417 323.058C438.04 322.769 437.769 322.364 437.644 321.905L427.71 285.076C427.694 285.019 427.658 284.969 427.608 284.937C427.558 284.905 427.498 284.892 427.439 284.902C427.381 284.912 427.328 284.943 427.29 284.989C427.253 285.035 427.235 285.094 427.238 285.153L429.245 320.081C429.263 320.39 429.214 320.699 429.102 320.988C428.99 321.276 428.817 321.537 428.596 321.753C428.374 321.969 428.108 322.134 427.817 322.239C427.526 322.343 427.215 322.384 426.907 322.358L419.15 321.712C418.653 321.669 418.186 321.457 417.827 321.11C417.469 320.763 417.241 320.304 417.182 319.808L410.115 246.466L412.849 248.106L438.468 243.759L448.777 321.058C448.817 321.363 448.792 321.674 448.703 321.968C448.614 322.263 448.463 322.535 448.26 322.767C448.057 322.998 447.807 323.184 447.527 323.311C447.246 323.438 446.942 323.504 446.634 323.504H446.634Z" fill="#2F2E41"/>
<path d="M418.683 254.207C415.857 254.184 413.088 253.406 410.665 251.951C410.291 251.73 409.993 251.402 409.81 251.008C409.627 250.615 409.567 250.176 409.638 249.748C410.539 244.233 415.251 215.941 419.538 200.517C421.284 194.235 425.145 190.852 431.014 190.461C439.598 189.898 447.227 196.61 448.022 205.442C449.423 221.022 443.73 243.159 441.217 251.953C441.12 252.293 440.941 252.603 440.695 252.858C440.45 253.112 440.146 253.302 439.809 253.411C439.473 253.521 439.115 253.546 438.767 253.485C438.419 253.423 438.091 253.278 437.812 253.061L432.691 249.078C432.375 248.838 431.986 248.715 431.59 248.731C431.193 248.748 430.815 248.903 430.521 249.169C426.204 253.017 422.103 254.207 418.683 254.207Z" fill="#3F3D56"/>
<path opacity="0.2" d="M435.622 213.066L439.945 231.313L433.699 246.677L438.024 231.793L435.622 213.066Z" fill="black"/>
<path d="M438.506 184.257C439.556 184.276 440.599 184.088 441.575 183.702C442.005 183.537 442.45 183.401 442.879 183.235C446.666 181.773 449.16 177.743 449.25 173.687C449.339 169.63 447.238 165.693 444.117 163.099C440.997 160.504 436.955 159.172 432.907 158.864C428.547 158.532 423.638 159.637 421.202 163.266C420.553 164.231 420.1 165.403 420.484 166.57C420.599 166.922 420.805 167.237 421.08 167.485C422.168 168.453 423.253 167.725 424.362 167.661C425.886 167.573 427.255 168.806 427.747 170.251C428.239 171.696 428.023 173.286 427.625 174.76C427.322 175.647 427.132 176.568 427.057 177.502C427.025 177.97 427.113 178.439 427.313 178.863C427.513 179.288 427.818 179.655 428.2 179.929C429.152 180.504 430.403 180.171 431.356 179.597C432.309 179.022 433.133 178.223 434.163 177.801C435.192 177.378 436.575 177.472 437.175 178.409C437.365 178.75 437.494 179.122 437.555 179.508C438.093 181.954 437.969 181.81 438.506 184.257Z" fill="#2F2E41"/>
<path d="M420.218 312.793L346.334 287.075C345.066 286.632 344.026 285.705 343.441 284.496C342.857 283.288 342.776 281.897 343.216 280.629L362.416 225.526C362.74 224.597 363.42 223.836 364.306 223.408C365.192 222.98 366.211 222.92 367.141 223.243L443.523 249.83C444.467 250.16 445.243 250.851 445.678 251.752C446.114 252.653 446.174 253.689 445.846 254.635L426.668 309.677C426.225 310.944 425.297 311.984 424.087 312.568C422.878 313.152 421.487 313.233 420.218 312.793Z" fill="#E6E6E6"/>
<path d="M352.639 283.908L417.245 306.397C418.475 306.825 419.826 306.747 420.998 306.181C422.171 305.614 423.071 304.605 423.499 303.375L439.003 258.88C439.431 257.65 439.354 256.301 438.787 255.129C438.22 253.956 437.21 253.057 435.98 252.629L371.373 230.14C370.143 229.712 368.793 229.79 367.62 230.357C366.447 230.923 365.548 231.932 365.119 233.162L349.616 277.657C349.403 278.266 349.313 278.911 349.35 279.554C349.388 280.198 349.551 280.828 349.832 281.409C350.113 281.989 350.505 282.509 350.987 282.937C351.468 283.366 352.03 283.696 352.639 283.908Z" fill="white"/>
<path d="M368.862 252.647L365.663 251.533C365.489 251.472 365.347 251.345 365.267 251.18C365.187 251.015 365.176 250.824 365.236 250.651L366.35 247.453C366.411 247.28 366.538 247.137 366.703 247.057C366.869 246.977 367.059 246.966 367.233 247.027L370.432 248.14C370.606 248.201 370.748 248.328 370.828 248.493C370.908 248.659 370.919 248.849 370.859 249.022L369.745 252.22C369.684 252.394 369.557 252.536 369.392 252.616C369.226 252.696 369.036 252.707 368.862 252.647Z" fill="#6C63FF"/>
<path d="M365.975 260.932L362.776 259.819C362.602 259.758 362.46 259.631 362.38 259.466C362.3 259.3 362.289 259.11 362.349 258.937L363.463 255.739C363.524 255.565 363.651 255.423 363.816 255.343C363.982 255.263 364.172 255.252 364.346 255.312L367.545 256.426C367.719 256.487 367.861 256.613 367.941 256.779C368.021 256.944 368.032 257.134 367.972 257.308L366.858 260.506C366.797 260.679 366.67 260.822 366.505 260.901C366.339 260.981 366.149 260.992 365.975 260.932Z" fill="#3F3D56"/>
<path d="M363.088 269.218L359.889 268.104C359.715 268.044 359.573 267.917 359.493 267.752C359.413 267.586 359.402 267.396 359.462 267.222L360.576 264.024C360.637 263.851 360.764 263.709 360.929 263.629C361.095 263.549 361.285 263.538 361.459 263.598L364.658 264.712C364.832 264.772 364.974 264.899 365.054 265.065C365.134 265.23 365.145 265.42 365.085 265.594L363.971 268.792C363.91 268.965 363.783 269.107 363.618 269.187C363.452 269.267 363.262 269.278 363.088 269.218Z" fill="#CCCCCC"/>
<path d="M390.362 258.337L374.946 252.971C374.86 252.941 374.78 252.895 374.712 252.835C374.644 252.774 374.588 252.701 374.549 252.619C374.509 252.537 374.486 252.448 374.48 252.357C374.475 252.266 374.488 252.175 374.518 252.089C374.548 252.003 374.594 251.923 374.655 251.855C374.716 251.787 374.789 251.732 374.871 251.692C374.954 251.653 375.043 251.63 375.134 251.625C375.225 251.62 375.316 251.633 375.402 251.663L390.818 257.029C390.904 257.059 390.984 257.105 391.052 257.166C391.12 257.226 391.176 257.3 391.216 257.382C391.255 257.464 391.279 257.553 391.284 257.644C391.289 257.734 391.276 257.826 391.246 257.912C391.216 257.998 391.17 258.077 391.109 258.145C391.048 258.213 390.975 258.268 390.893 258.308C390.811 258.347 390.722 258.37 390.631 258.375C390.539 258.38 390.448 258.368 390.362 258.337Z" fill="#CCCCCC"/>
<path d="M387.475 266.623L372.059 261.257C371.885 261.197 371.743 261.07 371.663 260.904C371.583 260.739 371.572 260.549 371.632 260.375C371.693 260.202 371.82 260.059 371.985 259.979C372.151 259.899 372.341 259.888 372.515 259.949L387.931 265.315C388.017 265.345 388.097 265.391 388.165 265.452C388.233 265.512 388.288 265.585 388.328 265.667C388.368 265.749 388.391 265.838 388.396 265.929C388.402 266.02 388.389 266.111 388.359 266.197C388.329 266.283 388.282 266.363 388.222 266.431C388.161 266.499 388.088 266.554 388.006 266.593C387.923 266.633 387.834 266.656 387.743 266.661C387.652 266.666 387.561 266.653 387.475 266.623Z" fill="#CCCCCC"/>
<path d="M384.588 274.909L369.172 269.543C368.998 269.482 368.856 269.356 368.776 269.19C368.696 269.025 368.685 268.834 368.745 268.661C368.806 268.487 368.933 268.345 369.098 268.265C369.264 268.185 369.454 268.174 369.628 268.235L385.044 273.601C385.218 273.661 385.36 273.788 385.44 273.953C385.52 274.119 385.531 274.309 385.471 274.483C385.41 274.656 385.283 274.799 385.118 274.879C384.952 274.958 384.762 274.969 384.588 274.909Z" fill="#CCCCCC"/>
<path d="M425.614 279.398C425.726 279.129 425.832 278.855 425.929 278.576C427.196 274.94 426.966 270.949 425.289 267.482C423.613 264.015 420.627 261.356 416.988 260.089L411.921 274.632L425.614 279.398Z" fill="#6C63FF"/>
<path d="M410.448 275.517L415.515 260.974C412.837 260.042 409.945 259.913 407.195 260.604C404.445 261.295 401.957 262.776 400.039 264.863C398.12 266.95 396.855 269.553 396.399 272.35C395.943 275.147 396.316 278.017 397.472 280.605C398.628 283.193 400.517 285.386 402.905 286.914C405.293 288.442 408.077 289.238 410.912 289.204C413.748 289.17 416.511 288.307 418.862 286.721C421.212 285.136 423.047 282.898 424.14 280.283L410.448 275.517Z" fill="#3F3D56"/>
<path d="M428.588 254.655C428.531 253.952 428.629 253.244 428.874 252.582C429.12 251.921 429.508 251.321 430.011 250.825C430.514 250.33 431.12 249.95 431.785 249.714C432.45 249.477 433.16 249.39 433.863 249.457L441.008 233.855L445.735 241.417L438.225 255.073C438.034 256.246 437.419 257.308 436.497 258.058C435.575 258.808 434.409 259.194 433.221 259.143C432.033 259.091 430.905 258.606 430.052 257.779C429.198 256.952 428.677 255.84 428.588 254.655Z" fill="#FFB8B8"/>
<path d="M440.958 249.161C440.518 249.161 440.089 249.027 439.727 248.777L436.353 246.442C435.988 246.189 435.71 245.829 435.557 245.413C435.403 244.996 435.381 244.542 435.494 244.113L439.46 229.141L434.666 201.343C434.66 200.428 434.835 199.522 435.181 198.674C435.526 197.827 436.035 197.056 436.679 196.406C437.322 195.756 438.088 195.239 438.932 194.884C439.775 194.53 440.681 194.345 441.596 194.341C442.511 194.336 443.418 194.512 444.266 194.858C445.113 195.205 445.883 195.714 446.533 196.358C447.183 197.003 447.7 197.768 448.053 198.612C448.407 199.456 448.591 200.361 448.594 201.276L452.522 218.621C453.715 223.885 452.954 229.403 450.381 234.149L442.858 248.029C442.713 248.296 442.514 248.53 442.273 248.714C442.032 248.899 441.755 249.031 441.46 249.102C441.295 249.141 441.127 249.161 440.958 249.161Z" fill="#3F3D56"/>
<path d="M477.52 335H386.243C386.116 335 385.994 334.949 385.904 334.859C385.813 334.769 385.763 334.647 385.763 334.52C385.763 334.392 385.813 334.27 385.904 334.18C385.994 334.09 386.116 334.04 386.243 334.04H477.52C477.647 334.04 477.769 334.09 477.859 334.18C477.949 334.27 478 334.392 478 334.52C478 334.647 477.949 334.769 477.859 334.859C477.769 334.949 477.647 335 477.52 335Z" fill="#CCCCCC"/>
<path d="M235.657 329.026L241.547 329.025L244.348 306.32H235.656L235.657 329.026Z" fill="#A0616A"/>
<path d="M234.155 327.104L245.753 327.104H245.754C246.725 327.103 247.686 327.295 248.583 327.666C249.479 328.037 250.294 328.581 250.981 329.267C251.667 329.953 252.211 330.768 252.583 331.664C252.954 332.56 253.146 333.521 253.146 334.491V334.731L234.155 334.732L234.155 327.104Z" fill="#2F2E41"/>
<path d="M212.117 329.026L218.007 329.025L220.809 306.32H212.116L212.117 329.026Z" fill="#A0616A"/>
<path d="M210.615 327.104L222.214 327.104H222.214C223.185 327.103 224.146 327.295 225.043 327.666C225.94 328.037 226.755 328.581 227.441 329.267C228.127 329.953 228.672 330.768 229.043 331.664C229.415 332.56 229.606 333.521 229.606 334.491V334.731L210.615 334.732L210.615 327.104Z" fill="#2F2E41"/>
<path d="M236.832 171.83C243.349 171.83 248.632 166.55 248.632 160.037C248.632 153.523 243.349 148.243 236.832 148.243C230.316 148.243 225.033 153.523 225.033 160.037C225.033 166.55 230.316 171.83 236.832 171.83Z" fill="#A0616A"/>
<path d="M244.767 324.125H233.838C233.551 324.125 233.268 324.068 233.004 323.958C232.74 323.848 232.501 323.686 232.3 323.483C232.099 323.28 231.94 323.038 231.833 322.773C231.726 322.508 231.673 322.224 231.676 321.938L232.311 270.066C232.313 269.882 232.245 269.703 232.12 269.568C231.995 269.433 231.823 269.35 231.639 269.338C231.455 269.326 231.273 269.384 231.131 269.502C230.989 269.619 230.897 269.787 230.875 269.97L224.514 322.226C224.45 322.75 224.196 323.232 223.801 323.582C223.406 323.931 222.896 324.125 222.368 324.125H211.334C211.036 324.125 210.741 324.064 210.468 323.944C210.195 323.825 209.949 323.65 209.747 323.432C209.544 323.213 209.389 322.955 209.292 322.673C209.194 322.392 209.155 322.093 209.179 321.796L216.465 228.609L216.663 228.587L251.554 224.821L246.926 322.067C246.901 322.622 246.662 323.146 246.26 323.529C245.857 323.912 245.323 324.126 244.767 324.125Z" fill="#2F2E41"/>
<path d="M216.89 234.329C216.329 234.328 215.791 234.109 215.389 233.719C214.987 233.328 214.753 232.797 214.736 232.237C214.545 226.344 214.219 205.956 218.013 190.988C219.048 186.899 221.373 183.252 224.642 180.585C227.912 177.919 231.953 176.374 236.169 176.181C240.318 175.954 244.433 177.039 247.931 179.282C251.428 181.525 254.13 184.812 255.653 188.676C262.031 204.859 268.056 224.806 260.544 227.935C250.698 232.035 224.743 233.863 217.022 234.325C216.978 234.328 216.934 234.329 216.89 234.329Z" fill="#3F3D56"/>
<path d="M261.986 148.117C262.171 148.307 262.371 148.483 262.584 148.642L261.346 172.422L256.194 175.059L259.158 183.35L268.732 179.569C269.506 179.263 270.159 178.715 270.595 178.007C271.03 177.299 271.224 176.469 271.147 175.641L268.639 148.666C269.459 148.054 270.074 147.206 270.401 146.236C270.729 145.267 270.753 144.22 270.47 143.236C270.188 142.252 269.613 141.378 268.821 140.729C268.029 140.08 267.058 139.687 266.038 139.603C265.017 139.518 263.995 139.747 263.108 140.257C262.22 140.768 261.509 141.537 261.069 142.461C260.629 143.385 260.481 144.421 260.645 145.432C260.809 146.442 261.276 147.379 261.986 148.117Z" fill="#A0616A"/>
<path d="M261.444 173.308L265.068 183.602C265.171 183.895 265.21 184.206 265.181 184.516C265.153 184.825 265.058 185.124 264.904 185.394C264.749 185.663 264.539 185.896 264.286 186.077C264.033 186.257 263.745 186.381 263.44 186.44L252.753 188.509C251.251 189.028 249.604 188.93 248.173 188.237C246.743 187.544 245.646 186.313 245.122 184.813C244.599 183.312 244.693 181.666 245.382 180.234C246.071 178.803 247.301 177.703 248.8 177.176L258.396 172.114C258.671 171.969 258.973 171.885 259.283 171.868C259.594 171.85 259.904 171.9 260.193 172.013C260.482 172.127 260.744 172.301 260.96 172.524C261.175 172.748 261.34 173.015 261.444 173.308V173.308Z" fill="#3F3D56"/>
<path d="M210.877 148.117C210.692 148.307 210.492 148.483 210.279 148.642L211.517 172.422L216.669 175.059L213.705 183.35L204.131 179.569C203.357 179.263 202.704 178.715 202.268 178.007C201.833 177.299 201.639 176.469 201.716 175.641L204.224 148.666C203.404 148.054 202.789 147.206 202.462 146.236C202.134 145.267 202.11 144.22 202.393 143.236C202.675 142.252 203.25 141.378 204.042 140.729C204.834 140.08 205.805 139.687 206.825 139.603C207.846 139.518 208.868 139.747 209.756 140.257C210.643 140.768 211.354 141.537 211.794 142.461C212.234 143.385 212.382 144.421 212.218 145.432C212.054 146.442 211.587 147.379 210.877 148.117H210.877Z" fill="#A0616A"/>
<path d="M212.67 172.013C212.959 171.9 213.27 171.85 213.58 171.867C213.89 171.885 214.193 171.969 214.467 172.114L224.063 177.176C225.562 177.703 226.792 178.803 227.481 180.234C228.171 181.666 228.264 183.312 227.741 184.813C227.218 186.313 226.12 187.544 224.69 188.237C223.26 188.93 221.613 189.028 220.11 188.509L209.424 186.44C209.119 186.381 208.83 186.257 208.577 186.077C208.324 185.896 208.114 185.663 207.959 185.394C207.805 185.124 207.71 184.825 207.682 184.516C207.654 184.206 207.692 183.895 207.795 183.602L211.42 173.308C211.523 173.015 211.688 172.747 211.904 172.524C212.119 172.301 212.381 172.126 212.67 172.013Z" fill="#3F3D56"/>
<path d="M241.415 162.047C241.353 160.542 241.731 159.053 242.502 157.759C243.273 156.466 244.405 155.425 245.758 154.764C249.345 152.913 251.598 148.966 250.611 145.361C249.347 140.748 243.064 137.755 237.974 139.343C236.596 139.831 235.267 140.449 234.005 141.186L230.679 142.968C229.259 143.679 227.889 144.487 226.58 145.387C224.619 146.831 223.082 148.775 222.129 151.016C221.177 153.257 220.844 155.712 221.165 158.126C221.82 162.816 224.894 167.118 229.1 170.063C230.709 171.265 232.567 172.09 234.538 172.479C236.554 172.811 238.799 172.433 240.274 171.18C242.578 169.221 242.34 165.941 241.595 163.201C241.496 162.824 241.436 162.437 241.415 162.047Z" fill="#2F2E41"/>
<path d="M281.516 335H190.239C190.112 335 189.99 334.949 189.9 334.859C189.809 334.769 189.759 334.647 189.759 334.52C189.759 334.392 189.809 334.27 189.9 334.18C189.99 334.09 190.112 334.04 190.239 334.04H281.516C281.643 334.04 281.765 334.09 281.855 334.18C281.945 334.27 281.996 334.392 281.996 334.52C281.996 334.647 281.945 334.769 281.855 334.859C281.765 334.949 281.643 335 281.516 335Z" fill="#CCCCCC"/>
<path d="M132.548 247.405L57.2315 278.288C55.938 278.817 54.4876 278.811 53.1983 278.272C51.9091 277.733 50.8863 276.705 50.3545 275.414L27.2991 219.243C26.9115 218.296 26.9157 217.233 27.3107 216.289C27.7057 215.345 28.4592 214.596 29.4059 214.207L107.268 182.28C108.232 181.886 109.313 181.891 110.274 182.292C111.235 182.694 111.997 183.46 112.393 184.423L135.423 240.532C135.952 241.824 135.947 243.274 135.408 244.563C134.868 245.851 133.84 246.874 132.548 247.405Z" fill="#E6E6E6"/>
<path d="M59.9597 271.475L125.818 244.47C127.072 243.956 128.071 242.965 128.594 241.715C129.117 240.465 129.122 239.058 128.607 237.805L109.99 192.447C109.735 191.827 109.361 191.262 108.888 190.786C108.415 190.31 107.853 189.932 107.233 189.673C106.614 189.414 105.95 189.28 105.279 189.278C104.607 189.275 103.942 189.405 103.321 189.66L37.4627 216.665C36.8417 216.919 36.277 217.294 35.8008 217.766C35.3246 218.239 34.9462 218.801 34.6872 219.42C34.4283 220.039 34.2938 220.703 34.2915 221.374C34.2893 222.045 34.4192 222.709 34.674 223.33L53.291 268.688C53.5458 269.308 53.9204 269.873 54.3934 270.349C54.8664 270.825 55.4286 271.203 56.0478 271.462C56.667 271.72 57.3312 271.855 58.0024 271.857C58.6736 271.859 59.3387 271.729 59.9597 271.475Z" fill="white"/>
<path d="M109.626 204.817L108.658 205.214L108.724 205.375L109.692 204.978L109.626 204.817Z" fill="#E6E6E6"/>
<path d="M106.768 206.177L104.812 206.979L104.746 206.818L106.702 206.016L106.768 206.177ZM102.856 207.782L100.9 208.584L100.834 208.422L102.79 207.62L102.856 207.782ZM98.9437 209.386L96.9876 210.188L96.9214 210.026L98.8775 209.224L98.9437 209.386ZM95.0315 210.99L93.0754 211.792L93.0092 211.631L94.9653 210.829L95.0315 210.99ZM91.1193 212.594L89.1633 213.396L89.0971 213.235L91.0532 212.433L91.1193 212.594ZM87.2072 214.198L85.2511 215L85.1849 214.839L87.141 214.037L87.2072 214.198ZM83.295 215.802L81.339 216.604L81.2728 216.443L83.2288 215.641L83.295 215.802ZM79.3829 217.406L77.4268 218.209L77.3606 218.047L79.3167 217.245L79.3829 217.406ZM75.4707 219.011L73.5147 219.813L73.4485 219.651L75.4045 218.849L75.4707 219.011ZM71.5586 220.615L69.6025 221.417L69.5363 221.256L71.4924 220.453L71.5586 220.615ZM67.6464 222.219L65.6903 223.021L65.6241 222.86L67.5802 222.058L67.6464 222.219ZM63.7342 223.823L61.7782 224.625L61.712 224.464L63.668 223.662L63.7342 223.823ZM59.8221 225.427L57.866 226.229L57.7998 226.068L59.7559 225.266L59.8221 225.427ZM55.9099 227.031L53.9538 227.833L53.8876 227.672L55.8437 226.87L55.9099 227.031ZM51.9978 228.636L50.0417 229.438L49.9755 229.276L51.9315 228.474L51.9978 228.636ZM48.0856 230.24L46.1295 231.042L46.0633 230.88L48.0194 230.078L48.0856 230.24Z" fill="#E6E6E6"/>
<path d="M44.1072 231.683L43.139 232.08L43.2052 232.241L44.1734 231.844L44.1072 231.683Z" fill="#E6E6E6"/>
<path d="M83.9919 232.853L83.0237 233.25L83.0899 233.412L84.0581 233.015L83.9919 232.853Z" fill="#E6E6E6"/>
<path d="M81.1628 234.202L79.2358 234.992L79.1696 234.831L81.0966 234.041L81.1628 234.202ZM77.3088 235.782L75.3817 236.572L75.3155 236.411L77.2426 235.621L77.3088 235.782ZM73.4547 237.362L71.5277 238.153L71.4615 237.991L73.3885 237.201L73.4547 237.362ZM69.6007 238.943L67.6736 239.733L67.6074 239.572L69.5345 238.782L69.6007 238.943ZM65.7466 240.523L63.8196 241.313L63.7534 241.152L65.6804 240.362L65.7466 240.523ZM61.8925 242.103L59.9655 242.894L59.8993 242.732L61.8263 241.942L61.8925 242.103ZM58.0385 243.684L56.1115 244.474L56.0453 244.313L57.9723 243.523L58.0385 243.684ZM54.1844 245.264L52.2574 246.054L52.1912 245.893L54.1182 245.103L54.1844 245.264Z" fill="#E6E6E6"/>
<path d="M50.2642 246.683L49.296 247.08L49.3622 247.241L50.3304 246.844L50.2642 246.683Z" fill="#E6E6E6"/>
<path d="M68.0239 247.692L67.0556 248.089L67.1218 248.251L68.0901 247.854L68.0239 247.692Z" fill="#E6E6E6"/>
<path d="M65.1392 249.064L63.1566 249.877L63.0904 249.715L65.073 248.902L65.1392 249.064ZM61.1739 250.69L59.1913 251.503L59.1251 251.341L61.1077 250.528L61.1739 250.69ZM57.2087 252.315L55.2261 253.128L55.1599 252.967L57.1425 252.154L57.2087 252.315Z" fill="#E6E6E6"/>
<path d="M53.1772 253.78L52.2089 254.177L52.2751 254.338L53.2434 253.941L53.1772 253.78Z" fill="#E6E6E6"/>
<path d="M72.9949 259.804L72.0267 260.201L72.0929 260.362L73.0611 259.965L72.9949 259.804Z" fill="#E6E6E6"/>
<path d="M70.1103 261.175L68.1277 261.988L68.0615 261.827L70.0441 261.014L70.1103 261.175ZM66.145 262.801L64.1624 263.614L64.0962 263.453L66.0788 262.64L66.145 262.801ZM62.1798 264.427L60.1972 265.24L60.131 265.078L62.1136 264.266L62.1798 264.427Z" fill="#E6E6E6"/>
<path d="M58.1483 265.891L57.1801 266.288L57.2463 266.45L58.2145 266.053L58.1483 265.891Z" fill="#E6E6E6"/>
<path d="M62.7561 264.335L118.567 241.45C119.918 240.895 120.993 239.826 121.556 238.479C122.12 237.132 122.126 235.617 121.573 234.266L110.296 206.793L110.187 206.841L96.4915 239.573L86.3336 235.328C86.1462 235.249 85.943 235.215 85.74 235.227C85.537 235.24 85.3397 235.299 85.1636 235.401C84.8991 235.56 84.6944 235.802 84.5813 236.089L77.4035 253.241L69.9766 250.138C69.8163 250.071 69.6444 250.036 69.4707 250.036C69.297 250.035 69.1248 250.069 68.9641 250.135C68.8033 250.2 68.6572 250.297 68.534 250.42C68.4107 250.542 68.3128 250.688 68.2458 250.848C68.1983 250.964 63.6189 262.194 62.7561 264.335Z" fill="#6C63FF"/>
<path d="M62.5843 264.594L62.4234 264.526L68.1664 250.8C68.3184 250.438 68.6081 250.151 68.9717 250.002C69.3354 249.853 69.7434 249.854 70.1062 250.005L77.3865 253.048L84.5234 235.99C84.6755 235.628 84.9651 235.341 85.3288 235.192C85.6924 235.042 86.1004 235.044 86.4632 235.195L96.4745 239.379L110.241 206.477L110.402 206.544L96.5681 239.607L86.396 235.356C86.2375 235.289 86.0675 235.255 85.8957 235.254C85.7239 235.254 85.5536 235.287 85.3947 235.352C85.2358 235.417 85.0912 235.513 84.9693 235.634C84.8475 235.755 84.7506 235.899 84.6843 236.058L77.4801 253.276L70.0389 250.166C69.7188 250.032 69.3588 250.031 69.038 250.163C68.7171 250.295 68.4615 250.548 68.3273 250.868L62.5843 264.594Z" fill="#3F3D56"/>
<path d="M68.0569 248.993C68.7313 248.993 69.2779 248.447 69.2779 247.773C69.2779 247.099 68.7313 246.552 68.0569 246.552C67.3826 246.552 66.8359 247.099 66.8359 247.773C66.8359 248.447 67.3826 248.993 68.0569 248.993Z" fill="#3F3D56"/>
<path d="M84.025 234.154C84.6994 234.154 85.246 233.608 85.246 232.934C85.246 232.26 84.6994 231.713 84.025 231.713C83.3507 231.713 82.804 232.26 82.804 232.934C82.804 233.608 83.3507 234.154 84.025 234.154Z" fill="#3F3D56"/>
<path d="M108.889 206.075C109.563 206.075 110.11 205.528 110.11 204.854C110.11 204.18 109.563 203.634 108.889 203.634C108.215 203.634 107.668 204.18 107.668 204.854C107.668 205.528 108.215 206.075 108.889 206.075Z" fill="#3F3D56"/>
<path d="M40.5465 246.388C41.1812 246.072 41.739 245.621 42.1804 245.067C42.6219 244.513 42.9364 243.868 43.1018 243.179C43.2671 242.49 43.2793 241.773 43.1374 241.079C42.9956 240.384 42.7031 239.73 42.2807 239.16L45.907 203.722H38.0701L35.1881 238.326C34.2786 239.098 33.6843 240.178 33.5177 241.359C33.3512 242.541 33.624 243.742 34.2845 244.736C34.945 245.73 35.9472 246.447 37.1014 246.751C38.2555 247.056 39.4813 246.927 40.5465 246.388Z" fill="#FFB8B8"/>
<path d="M47.7422 184.165C53.8658 184.165 58.8299 179.203 58.8299 173.083C58.8299 166.962 53.8658 162.001 47.7422 162.001C41.6186 162.001 36.6545 166.962 36.6545 173.083C36.6545 179.203 41.6186 184.165 47.7422 184.165Z" fill="#FFB8B8"/>
<path d="M49.8295 224.36C49.3857 224.36 48.9542 224.215 48.6011 223.946C48.2481 223.677 47.9931 223.3 47.8752 222.872C46.9869 219.646 44.6757 214.192 41.006 206.66C40.178 204.958 39.7195 203.099 39.6606 201.207C39.6016 199.315 39.9436 197.432 40.6641 195.681C41.3845 193.93 42.4672 192.352 43.841 191.049C45.2148 189.745 46.8488 188.747 48.6357 188.12C50.3291 187.522 52.1251 187.27 53.9177 187.378C55.7102 187.487 57.4628 187.953 59.0718 188.751C60.6808 189.548 62.1134 190.66 63.285 192.02C64.4566 193.38 65.3433 194.962 65.8926 196.671C68.737 205.584 68.5997 215.131 68.4086 218.822C68.3848 219.267 68.216 219.691 67.9278 220.031C67.6397 220.37 67.2482 220.606 66.8132 220.701L50.2652 224.313C50.1221 224.345 49.976 224.361 49.8295 224.36Z" fill="#FF6584"/>
<path d="M65.8545 329.595H71.3887L74.0218 308.258L65.8535 308.259L65.8545 329.595Z" fill="#FFB8B8"/>
<path d="M82.0627 334.731L64.6686 334.732L64.6683 328.015L75.342 328.015C76.2245 328.015 77.0984 328.188 77.9138 328.526C78.7292 328.863 79.4701 329.358 80.0942 329.982C80.7182 330.606 81.2133 331.346 81.5511 332.161C81.8888 332.976 82.0627 333.849 82.0627 334.731Z" fill="#2F2E41"/>
<path d="M10.5121 322.427L15.3623 325.091L27.9546 307.662L20.7971 303.729L10.5121 322.427Z" fill="#FFB8B8"/>
<path d="M22.2397 334.732L6.99724 326.356L10.2349 320.47L19.5883 325.61C21.1502 326.468 22.307 327.911 22.8042 329.622C23.3014 331.333 23.0984 333.171 22.2397 334.732Z" fill="#2F2E41"/>
<path d="M65.5958 317.753C65.1026 317.752 64.6264 317.572 64.2561 317.247C63.8858 316.921 63.6466 316.472 63.5832 315.983L56.6617 262.674C56.6311 262.438 56.5267 262.218 56.3635 262.045C56.2003 261.872 55.9865 261.755 55.7528 261.71C55.5191 261.666 55.2773 261.697 55.062 261.798C54.8468 261.899 54.669 262.066 54.5541 262.274L25.7081 314.583C25.47 315.01 25.0866 315.338 24.6274 315.506C24.1682 315.675 23.6638 315.673 23.2059 315.501L16.9183 313.106C16.6654 313.01 16.4343 312.864 16.2386 312.678C16.0428 312.491 15.8864 312.267 15.7785 312.019C15.6706 311.771 15.6134 311.504 15.6102 311.233C15.607 310.963 15.6579 310.694 15.76 310.444L35.7424 261.38C35.793 261.256 35.8273 261.125 35.8444 260.992C38.5509 240.054 45.4372 229.407 47.4832 226.642C47.6326 226.439 47.731 226.203 47.77 225.954C47.8089 225.704 47.7873 225.45 47.7071 225.21L47.4258 224.367C47.3134 224.032 47.2904 223.674 47.359 223.328C47.4275 222.981 47.5853 222.659 47.8167 222.392C55.1892 213.999 68.0393 218.579 68.1682 218.626L68.2326 218.65L68.2729 218.705C82.6816 238.456 77.3542 302.605 76.14 315.264C76.0947 315.74 75.8825 316.184 75.5409 316.518C75.1994 316.853 74.7505 317.056 74.2738 317.091L65.7536 317.747C65.7006 317.751 65.648 317.753 65.5958 317.753Z" fill="#2F2E41"/>
<path d="M90.847 185.956C90.7916 186.2 90.7555 186.447 90.739 186.696L71.3465 197.878L66.6329 195.166L61.6078 201.741L69.4855 207.353C70.122 207.806 70.8883 208.041 71.6696 208.022C72.4509 208.003 73.2049 207.731 73.8185 207.247L93.8155 191.48C94.718 191.813 95.7007 191.865 96.6331 191.627C97.5655 191.389 98.4033 190.873 99.035 190.147C99.6668 189.422 100.063 188.521 100.17 187.565C100.277 186.609 100.09 185.644 99.6351 184.796C99.1797 183.949 98.4771 183.26 97.6205 182.822C96.764 182.384 95.7943 182.216 94.8402 182.342C93.8862 182.468 92.9931 182.881 92.2798 183.527C91.5665 184.172 91.0667 185.02 90.847 185.956Z" fill="#FFB8B8"/>
<path d="M70.6981 198.407L64.4305 206.527C64.2522 206.758 64.0262 206.947 63.7678 207.083C63.5094 207.219 63.2248 207.298 62.9333 207.314C62.6418 207.33 62.3503 207.283 62.0786 207.176C61.807 207.069 61.5615 206.905 61.359 206.695L54.2637 199.33C53.0863 198.412 52.3215 197.064 52.1369 195.583C51.9523 194.101 52.3629 192.607 53.2788 191.428C54.1947 190.249 55.541 189.48 57.0227 189.292C58.5043 189.103 60.0003 189.51 61.1826 190.422L70.0818 195.395C70.3365 195.538 70.5576 195.733 70.7298 195.969C70.9021 196.205 71.0215 196.474 71.08 196.76C71.1385 197.046 71.1347 197.341 71.0688 197.626C71.0029 197.91 70.8765 198.176 70.6981 198.407Z" fill="#FF6584"/>
<path d="M46.4058 212.513L36.3091 210.691C36.0218 210.639 35.7491 210.526 35.5095 210.359C35.2699 210.193 35.0691 209.976 34.9207 209.725C34.7723 209.474 34.6798 209.194 34.6495 208.903C34.6193 208.613 34.652 208.32 34.7454 208.043L38.0185 198.357C38.2922 196.889 39.137 195.59 40.3677 194.744C41.5983 193.898 43.1145 193.574 44.5836 193.844C46.0527 194.114 47.3549 194.954 48.2047 196.182C49.0544 197.41 49.3823 198.925 49.1165 200.394L48.7972 210.579C48.788 210.871 48.716 211.157 48.5861 211.419C48.4562 211.68 48.2715 211.91 48.0445 212.094C47.8176 212.277 47.5537 212.41 47.271 212.482C46.9882 212.555 46.6931 212.565 46.4058 212.513H46.4058Z" fill="#FF6584"/>
<path d="M49.4971 170.534C52.3469 172.483 56.0887 174.487 58.9993 172.411C59.9098 171.718 60.5712 170.749 60.8845 169.649C61.1979 168.549 61.1463 167.377 60.7376 166.309C59.3439 162.325 55.5148 160.571 51.8531 159.227C47.093 157.48 41.91 156.089 36.9959 157.341C32.0819 158.592 27.739 163.348 28.626 168.338C29.3394 172.351 33.1269 175.691 32.5892 179.731C32.0481 183.797 27.4727 185.938 23.4334 186.665C19.3941 187.391 14.874 187.625 11.9711 190.525C8.26797 194.224 9.19271 200.836 12.6772 204.742C16.1618 208.648 21.4201 210.418 26.5154 211.622C33.2664 213.217 40.5682 214.055 46.9799 211.408C53.3917 208.762 58.3812 201.638 56.5238 194.957C55.7393 192.135 53.8911 189.751 52.1049 187.429C50.3188 185.107 48.5101 182.68 47.8288 179.831C47.261 177.457 47.6812 174.701 49.2561 172.921C49.5426 172.609 49.7229 172.215 49.7711 171.794C49.8193 171.374 49.7329 170.949 49.5245 170.581L49.4971 170.534Z" fill="#2F2E41"/>
<path d="M91.7568 335H0.480402C0.352991 335 0.230799 334.949 0.140706 334.859C0.0506133 334.769 0 334.647 0 334.52C0 334.392 0.0506133 334.27 0.140706 334.18C0.230799 334.09 0.352991 334.04 0.480402 334.04H91.7568C91.8842 334.04 92.0064 334.09 92.0965 334.18C92.1866 334.27 92.2372 334.392 92.2372 334.52C92.2372 334.647 92.1866 334.769 92.0965 334.859C92.0064 334.949 91.8842 335 91.7568 335Z" fill="#CCCCCC"/>
</svg>
