<svg width="485" height="420" viewBox="0 0 485 420" fill="none" xmlns="http://www.w3.org/2000/svg">
<path fill-rule="evenodd" clip-rule="evenodd" d="M211.5 396.235C135.966 401.108 55.2253 343.253 55.2253 272.842C55.2253 202.427 174.949 232.436 213.787 176.551C306.84 42.7419 494.7 258.064 428.658 282.096C296.328 330.215 392.691 384.535 211.5 396.235Z" fill="#F0EFF4"/>
<path fill-rule="evenodd" clip-rule="evenodd" d="M218.65 139.834C186.019 147.155 137.006 173.762 125.714 124.488C117.978 90.7271 209.842 93.6099 228.921 74.9038C270.891 33.7541 335.492 70.9821 307.868 84.2105C252.517 110.704 296.926 122.269 218.65 139.834Z" fill="#F0EFF4"/>
<path fill-rule="evenodd" clip-rule="evenodd" d="M166.888 51.1127C165.59 49.1007 163.122 47.6564 160.291 47.2494C157.503 46.8082 154.649 47.4407 152.322 49.0155L32.199 134.137C29.085 136.344 28.2276 139.928 30.118 142.857L181.29 377.116C182.608 379.158 185.055 380.572 187.906 381.01C190.694 381.451 193.548 380.819 195.875 379.244L315.997 294.122C319.111 291.915 319.969 288.331 318.078 285.402L166.888 51.1127ZM165.083 51.8328L316.274 286.123C317.745 288.402 317.081 291.201 314.631 292.937L194.51 378.059C192.686 379.286 190.457 379.787 188.273 379.46C186.036 379.147 184.127 377.999 183.095 376.401L31.9236 142.138C30.4339 139.83 31.0967 137.031 33.5456 135.295L153.667 50.1734C155.491 48.9458 157.72 48.4453 159.904 48.7729C162.162 49.1145 164.052 50.2335 165.083 51.8312V51.8328Z" fill="#3F3D56"/>
<path fill-rule="evenodd" clip-rule="evenodd" d="M184.065 48.9751C183.845 48.6293 183.555 48.3327 183.212 48.104C182.869 47.8754 182.481 47.7199 182.074 47.6475C181.673 47.5727 181.262 47.577 180.863 47.6601C180.465 47.7433 180.087 47.9037 179.752 48.1319L51.7289 138.852C51.1021 139.3 50.6731 139.967 50.5301 140.717C50.387 141.466 50.5407 142.241 50.9596 142.883L200.653 374.852C200.869 375.193 201.157 375.485 201.497 375.709C201.837 375.933 202.221 376.084 202.624 376.151C203.025 376.234 203.438 376.233 203.838 376.15C204.238 376.067 204.616 375.902 204.948 375.666L332.969 284.946C333.597 284.506 334.029 283.846 334.176 283.101C334.323 282.356 334.173 281.584 333.757 280.945L184.065 48.9751Z" fill="#3F3D56"/>
<path fill-rule="evenodd" clip-rule="evenodd" d="M287.222 231.388C285.091 228.087 281.13 225.744 276.485 225.072C271.84 224.4 267.072 225.455 263.562 227.942L196.674 275.34C188.15 281.38 185.853 291.128 191.034 299.157C193.165 302.458 197.125 304.798 201.77 305.469C206.414 306.141 211.182 305.087 214.676 302.611L281.581 255.2C290.087 249.173 292.403 239.417 287.222 231.388ZM285.78 231.954L285.782 231.957C290.633 239.475 288.463 248.611 280.496 254.257L213.591 301.668C210.474 303.878 206.207 304.825 202.06 304.224C197.929 303.611 194.377 301.535 192.475 298.588C187.624 291.071 189.793 281.934 197.76 276.288L264.665 228.877C267.782 226.667 272.049 225.72 276.178 226.33C280.325 226.931 283.878 229.007 285.779 231.954H285.78Z" fill="white"/>
<path fill-rule="evenodd" clip-rule="evenodd" d="M341.029 210.348C339.684 208.265 337.921 206.474 335.847 205.085C333.774 203.697 331.435 202.74 328.973 202.273C326.511 201.807 323.978 201.84 321.529 202.371C319.08 202.903 316.768 203.921 314.733 205.363L229.137 266.018C224.814 269.08 221.844 273.653 220.837 278.801C219.829 283.949 220.86 289.282 223.718 293.705C225.063 295.789 226.825 297.581 228.898 298.97C230.972 300.36 233.311 301.317 235.774 301.784C238.236 302.251 240.77 302.217 243.219 301.685C245.667 301.153 247.98 300.134 250.014 298.691L335.611 238.035C339.93 234.971 342.897 230.399 343.904 225.253C344.912 220.107 343.884 214.776 341.031 210.351L341.029 210.348Z" fill="#6C63FF"/>
<path fill-rule="evenodd" clip-rule="evenodd" d="M242.1 163.724C241.557 162.882 240.845 162.158 240.007 161.597C239.17 161.037 238.224 160.65 237.229 160.462C236.235 160.274 235.211 160.288 234.222 160.504C233.233 160.719 232.299 161.131 231.478 161.715L147.795 221.016C146.059 222.244 144.866 224.079 144.461 226.146C144.056 228.212 144.469 230.352 145.615 232.129C146.158 232.969 146.869 233.691 147.705 234.251C148.54 234.811 149.484 235.198 150.476 235.387C151.469 235.576 152.491 235.563 153.478 235.35C154.466 235.137 155.399 234.728 156.221 234.147L239.921 174.836C241.657 173.608 242.85 171.773 243.255 169.707C243.66 167.641 243.248 165.501 242.101 163.725L242.1 163.724ZM259.906 191.309C259.363 190.467 258.651 189.744 257.813 189.183C256.976 188.622 256.03 188.236 255.035 188.048C254.041 187.859 253.017 187.873 252.028 188.089C251.039 188.304 250.105 188.716 249.284 189.3L165.601 248.602C163.865 249.83 162.672 251.666 162.267 253.732C161.862 255.798 162.275 257.939 163.421 259.715C163.963 260.555 164.674 261.277 165.51 261.838C166.346 262.398 167.289 262.784 168.282 262.973C169.275 263.162 170.296 263.15 171.284 262.937C172.272 262.724 173.205 262.314 174.026 261.734L257.726 202.422C259.462 201.194 260.655 199.359 261.06 197.293C261.465 195.227 261.053 193.087 259.906 191.31V191.309Z" fill="white"/>
<path d="M251.492 276.395L253.83 274.497C254.049 274.715 254.315 274.882 254.607 274.987C254.9 275.092 255.212 275.133 255.523 275.106C256.283 274.989 256.999 274.677 257.597 274.201C258.255 273.788 258.803 273.227 259.199 272.565C259.45 272.048 259.478 271.625 259.278 271.313C259.214 271.214 259.126 271.131 259.023 271.072C258.919 271.013 258.802 270.98 258.683 270.975C258.287 270.986 257.897 271.08 257.541 271.251C257.214 271.387 256.463 271.741 255.293 272.295C253.805 273.027 252.682 273.419 251.917 273.46C250.854 273.535 250.114 273.236 249.677 272.56C249.391 272.078 249.299 271.508 249.421 270.963C249.585 270.239 249.926 269.564 250.415 268.999C251.072 268.229 251.832 267.549 252.673 266.978C254.239 265.869 255.566 265.268 256.655 265.175C257.745 265.081 258.553 265.429 259.093 266.177L256.646 268.024C256.478 267.856 256.273 267.728 256.046 267.65C255.82 267.572 255.578 267.547 255.34 267.577C254.689 267.714 254.08 268.002 253.563 268.416C252.954 268.808 252.439 269.327 252.056 269.936C251.966 270.049 251.912 270.186 251.901 270.329C251.889 270.472 251.921 270.616 251.993 270.741C252.074 270.846 252.184 270.926 252.311 270.971C252.437 271.016 252.573 271.025 252.704 270.996C253.142 270.944 254.033 270.603 255.371 269.932C256.371 269.411 257.414 268.975 258.488 268.627C259.111 268.431 259.775 268.395 260.417 268.52C260.989 268.664 261.479 269.025 261.781 269.524C262.107 270.065 262.211 270.707 262.073 271.32C261.911 272.112 261.541 272.847 260.999 273.454C260.274 274.299 259.437 275.045 258.509 275.67C256.931 276.789 255.571 277.397 254.409 277.494C253.869 277.556 253.322 277.488 252.814 277.296C252.306 277.105 251.853 276.796 251.492 276.395ZM260.957 263.518L259.984 262.011L262.364 260.325L263.337 261.832L260.957 263.518ZM265.477 270.523L261.493 264.351L263.873 262.664L267.857 268.838L265.477 270.523ZM270.339 267.659L273.206 265.968C273.275 266.056 273.367 266.123 273.472 266.162C273.578 266.201 273.692 266.212 273.802 266.192C274.238 266.089 274.645 265.889 274.99 265.608C275.48 265.289 275.911 264.891 276.266 264.43C276.412 264.211 276.483 263.952 276.467 263.69C276.409 263.387 276.283 263.101 276.096 262.854L275.517 261.956C275.225 263.141 274.496 264.176 273.471 264.86C272.255 265.721 271.069 266.045 269.92 265.842C269.47 265.766 269.042 265.594 268.666 265.339C268.289 265.084 267.974 264.752 267.741 264.365C267.42 263.914 267.214 263.393 267.14 262.846C267.066 262.299 267.127 261.743 267.317 261.225C267.726 260.108 268.488 259.149 269.492 258.489C270.452 257.743 271.674 257.4 272.89 257.535L272.332 256.67L274.559 255.094L278.135 260.635C278.523 261.18 278.792 261.797 278.927 262.448C278.983 262.915 278.919 263.389 278.741 263.826C278.5 264.332 278.175 264.797 277.781 265.2C277.21 265.797 276.576 266.332 275.891 266.797C274.364 267.879 273.163 268.472 272.294 268.555C271.431 268.649 270.814 268.424 270.457 267.87C270.412 267.803 270.373 267.732 270.339 267.659ZM270.129 262.543C270.551 263.197 271.039 263.545 271.615 263.589C272.214 263.617 272.804 263.433 273.279 263.072C273.825 262.706 274.237 262.177 274.453 261.562C274.549 261.258 274.572 260.937 274.52 260.624C274.468 260.31 274.343 260.012 274.154 259.755C273.741 259.112 273.238 258.773 272.662 258.728C272.025 258.709 271.402 258.911 270.901 259.298C270.375 259.648 269.983 260.16 269.784 260.752C269.702 261.057 269.691 261.376 269.751 261.686C269.81 261.996 269.94 262.289 270.129 262.543ZM289.082 253.796L286.702 255.482L284.671 252.335C284.242 251.67 283.912 251.274 283.679 251.148C283.436 251.03 283.161 250.993 282.894 251.042C282.554 251.111 282.235 251.254 281.959 251.462C281.568 251.731 281.24 252.079 280.997 252.483C280.786 252.809 280.69 253.195 280.725 253.58C280.869 254.137 281.118 254.661 281.46 255.127L283.262 257.92L280.882 259.607L276.898 253.433L279.11 251.866L279.697 252.774C280.054 251.491 280.867 250.377 281.987 249.633C282.469 249.285 282.998 249.004 283.557 248.795C283.973 248.641 284.417 248.573 284.861 248.597C285.191 248.635 285.505 248.758 285.77 248.954C286.104 249.241 286.387 249.581 286.608 249.96L289.082 253.796ZM290.82 240.16L293.329 238.382L296.304 242.993C296.593 243.476 296.93 243.93 297.31 244.347C297.498 244.483 297.712 244.579 297.939 244.629C298.166 244.679 298.401 244.683 298.63 244.64C299.966 244.29 301.128 243.473 301.896 242.341C302.116 241.981 302.184 241.55 302.084 241.142C301.868 240.608 301.59 240.1 301.257 239.628L298.218 234.917L300.727 233.139L303.609 237.606C304.267 238.625 304.675 239.403 304.804 239.925C304.946 240.447 304.929 240.999 304.754 241.511C304.521 242.148 304.174 242.738 303.73 243.254C303.076 243.99 302.332 244.642 301.514 245.196C300.324 246.039 299.375 246.583 298.625 246.824C298.017 247.06 297.364 247.165 296.712 247.13C296.235 247.107 295.775 246.951 295.385 246.681C294.739 246.104 294.186 245.434 293.745 244.694L290.82 240.16ZM304.798 233.663L307.024 232.087L307.61 232.995C307.716 232.426 307.948 231.887 308.288 231.416C308.674 230.851 309.164 230.361 309.732 229.973C310.646 229.27 311.78 228.9 312.94 228.927C314.035 228.958 314.905 229.491 315.548 230.487C315.868 230.947 316.075 231.474 316.154 232.026C316.232 232.579 316.18 233.142 316 233.671C315.613 234.791 314.867 235.756 313.874 236.421C313.426 236.748 312.928 237.002 312.4 237.175C311.838 237.336 311.253 237.406 310.669 237.384L312.678 240.499L310.298 242.185L304.798 233.663ZM309.076 234.976C309.526 235.675 310.061 236.038 310.678 236.086C311.318 236.126 311.952 235.935 312.461 235.549C312.979 235.203 313.362 234.693 313.544 234.103C313.714 233.547 313.573 232.92 313.131 232.233C312.709 231.579 312.22 231.231 311.636 231.175C311.02 231.147 310.414 231.336 309.926 231.707C309.384 232.064 308.98 232.589 308.778 233.199C308.686 233.498 308.666 233.814 308.717 234.122C308.769 234.43 308.891 234.722 309.076 234.976Z" fill="white"/>
<path d="M182.861 172.151C198.853 157.366 201.723 134.799 189.271 121.745C176.819 108.691 153.76 110.093 137.767 124.878C121.775 139.662 118.905 162.23 131.357 175.284C143.809 188.338 166.868 186.935 182.861 172.151Z" fill="white"/>
<path fill-rule="evenodd" clip-rule="evenodd" d="M156.99 164.761C152.349 164.692 148.166 162.688 145.707 158.877C141.249 151.969 144.159 141.723 152.221 136.009C160.283 130.296 170.477 131.262 174.934 138.17C177.817 142.638 177.581 148.513 174.92 153.637C185.849 150.017 195.628 151.811 198.094 158.495C200.98 166.343 192.671 177.987 179.565 184.473C166.459 190.959 153.435 189.865 150.55 182.017C148.75 177.028 151.418 170.516 156.99 164.761Z" fill="#D1CFE1"/>
<path fill-rule="evenodd" clip-rule="evenodd" d="M336.228 107.219C336.229 106.303 335.969 105.405 335.478 104.628C334.986 103.85 334.283 103.224 333.449 102.82L227.174 51.3675C226.415 51.0025 225.573 50.8333 224.729 50.876C223.885 50.9187 223.066 51.1718 222.348 51.6116C221.63 52.0514 221.038 52.6634 220.626 53.3903C220.215 54.1171 219.998 54.935 219.995 55.7671V73.0814C219.997 73.9964 220.258 74.8927 220.749 75.6696C221.24 76.4466 221.941 77.0734 222.774 77.4798L329.069 128.942C329.828 129.309 330.67 129.479 331.514 129.436C332.359 129.393 333.178 129.139 333.895 128.697C334.611 128.255 335.202 127.641 335.61 126.912C336.018 126.183 336.23 125.363 336.227 124.531L336.228 107.219Z" fill="#6C63FF"/>
<path fill-rule="evenodd" clip-rule="evenodd" d="M234.987 77.0064L232.725 74.4875L235.668 71.5444L230.466 67.6698L231.161 65.4882L236.363 69.3621L236.088 64.021L238.778 65.1901L239.053 70.5312L244.085 71.1045L245.042 74.0044L240.01 73.4308L243.398 79.1257L241.299 79.7497L237.928 74.0601L234.987 77.0064ZM253.706 86.0586L251.445 83.5395L254.387 80.5963L249.185 76.7227L249.881 74.5411L255.082 78.4147L254.807 73.0739L257.497 74.243L257.772 79.5838L262.804 80.1574L263.762 83.057L258.73 82.4837L262.118 88.1786L260.019 88.8023L256.647 83.113L253.706 86.0586ZM273.764 94.8654L271.502 92.3466L274.445 89.4035L269.243 85.5298L269.938 83.3482L275.14 87.2221L274.865 81.881L277.555 83.0501L277.83 88.3912L282.862 88.9645L283.819 91.8644L278.788 91.2908L282.175 96.9857L280.076 97.6097L276.705 91.9201L273.764 94.8654ZM293.349 105.253L291.088 102.734L294.03 99.7908L288.829 95.9168L289.524 93.7355L294.726 97.6091L294.45 92.2683L297.141 93.4374L297.416 98.7782L302.448 99.3518L303.405 102.251L298.373 101.678L301.761 107.373L299.662 107.997L296.291 102.307L293.349 105.253ZM314.017 115.259L311.756 112.74L314.698 109.797L309.497 105.924L310.192 103.742L315.394 107.616L315.118 102.275L317.809 103.444L318.084 108.785L323.116 109.358L324.073 112.258L319.041 111.685L322.429 117.38L320.33 118.004L316.959 112.314L314.017 115.259Z" fill="white"/>
<path d="M57.9526 302.376L95.6964 294.429L87.634 257.228L49.8902 265.174L57.9526 302.376Z" fill="#C6C6C6"/>
<path d="M94.6468 247.288C94.6468 247.288 80.7834 257.048 85.4045 260.952C90.0256 264.856 99.2679 249.24 99.2679 249.24L94.6468 247.288Z" fill="#FFB9B9"/>
<path d="M158.682 262.254C158.682 262.254 156.042 294.787 155.382 299.342C154.721 303.897 154.061 344.889 152.741 349.444C151.421 353.998 150.1 365.06 150.1 365.06H142.178C142.178 365.06 142.839 344.889 140.858 337.081C138.878 329.273 139.538 307.801 139.538 307.801C139.538 307.801 135.577 269.411 137.557 264.206C139.538 259 158.682 262.254 158.682 262.254Z" fill="#FFB9B9"/>
<path d="M148.12 363.108C148.12 363.108 151.421 365.06 151.421 366.361C151.421 367.662 150.76 370.916 151.421 372.217C152.081 373.518 156.702 378.724 154.061 380.025C151.421 381.326 139.538 380.025 139.538 380.025C139.538 380.025 140.198 370.916 140.858 370.265C141.518 369.614 140.198 363.108 140.198 363.108H148.12Z" fill="#2F2E41"/>
<path d="M108.217 261.456C108.217 261.456 107.378 294.083 107.55 298.681C107.721 303.279 104.012 344.113 104.84 348.779C105.668 353.445 105.803 364.582 105.803 364.582L113.681 365.402C113.681 365.402 115.173 345.274 117.974 337.714C120.775 330.154 122.405 308.732 122.405 308.732C122.405 308.732 130.433 270.965 129.017 265.583C127.602 260.202 108.217 261.456 108.217 261.456Z" fill="#FFB9B9"/>
<path d="M107.981 362.846C107.981 362.846 104.49 364.446 104.351 365.74C104.213 367.034 104.523 370.338 103.728 371.564C102.933 372.789 97.7828 377.488 100.27 379.055C102.758 380.623 114.714 380.558 114.714 380.558C114.714 380.558 115.027 371.43 114.44 370.715C113.853 370 115.859 363.665 115.859 363.665L107.981 362.846Z" fill="#2F2E41"/>
<path d="M149.44 213.453C149.44 213.453 154.721 214.104 156.702 225.165C158.682 236.227 165.944 264.206 160.003 266.158C154.061 268.11 136.237 272.014 135.577 270.712C134.917 269.411 133.596 266.158 133.596 266.158C133.596 266.158 135.577 272.014 132.936 272.014C130.296 272.014 104.549 268.11 105.209 266.158C105.87 264.206 107.19 249.891 107.19 249.891C107.19 249.891 111.151 225.816 115.112 221.912C116.258 220.827 117.148 219.507 117.719 218.045C118.289 216.583 118.526 215.016 118.413 213.453H149.44Z" fill="#2F2E41"/>
<path d="M159.343 208.248C159.343 208.248 150.76 206.296 149.44 208.899C148.12 211.501 152.741 215.405 154.721 215.405C156.702 215.405 160.003 213.453 160.003 213.453L159.343 208.248Z" fill="#FFB9B9"/>
<path d="M141.518 152.941C148.081 152.941 153.401 147.697 153.401 141.229C153.401 134.761 148.081 129.517 141.518 129.517C134.956 129.517 129.635 134.761 129.635 141.229C129.635 147.697 134.956 152.941 141.518 152.941Z" fill="#FFB9B9"/>
<path d="M139.538 149.688C139.538 149.688 137.557 158.797 138.878 158.797C140.198 158.797 128.975 164.653 128.975 164.653L120.393 163.352L117.752 159.448C117.752 159.448 131.616 150.338 131.616 145.133C131.616 139.928 139.538 149.688 139.538 149.688Z" fill="#FFB9B9"/>
<path d="M133.596 158.797C133.596 158.797 135.577 157.496 136.237 157.496H141.518C142.178 157.496 150.76 159.448 150.76 159.448L156.042 188.728C156.042 188.728 146.8 203.693 153.401 215.405C153.401 215.405 151.421 214.104 142.178 214.755C132.936 215.405 116.432 217.357 115.772 217.357C115.112 217.357 115.112 212.152 115.772 210.851C116.432 209.549 115.112 210.2 115.112 206.947C115.112 203.693 113.131 197.837 113.131 197.837L103.889 164.653C103.889 164.653 115.772 158.146 117.752 158.797C119.733 159.448 125.674 161.4 126.995 160.749C128.315 160.098 133.596 158.797 133.596 158.797Z" fill="#6C63FF"/>
<path d="M148.78 160.098L150.76 159.448C150.76 159.448 154.721 158.797 159.343 162.701C163.964 166.605 181.128 178.317 181.128 178.317C181.128 178.317 187.73 183.523 185.749 189.379C183.769 195.235 180.468 209.549 170.565 208.899C170.565 208.899 164.624 216.707 161.323 215.405C158.022 214.104 155.382 208.899 157.362 208.248C159.343 207.597 164.624 201.091 164.624 201.091L158.022 188.728H156.042L148.78 184.824L148.78 160.098Z" fill="#6C63FF"/>
<path d="M109.17 164.002L103.889 164.653C103.889 164.653 99.2678 166.605 99.928 175.064C100.588 183.523 95.967 221.912 97.9475 226.467C97.9475 226.467 91.3459 248.59 92.6662 249.24C93.9865 249.891 101.908 253.795 101.248 251.192C100.588 248.59 108.51 230.371 108.51 230.371C108.51 230.371 117.752 220.611 113.791 206.947V195.885L109.17 164.002Z" fill="#6C63FF"/>
<path d="M150.187 152.552L141.795 154.354L140.716 150.281L141.131 154.497L127.592 157.404L126.997 155.156L127.226 157.483L118.554 159.345L116.699 141.794C114.792 134.592 121.752 126.916 129.059 125.036L132.301 124.203C137.668 122.822 147.423 124.077 148.824 129.367C146.372 138.589 142.193 148.699 150.187 152.552Z" fill="#2F2E41"/>
</svg>
