<svg width="30" height="30" viewBox="0 0 30 30" fill="none" xmlns="http://www.w3.org/2000/svg">
<path d="M2.45387 17.037H12.1761C12.6058 17.037 13.018 16.8663 13.3219 16.5624C13.6257 16.2586 13.7965 15.8464 13.7965 15.4167V2.45371C13.7965 2.02396 13.6257 1.61181 13.3219 1.30793C13.018 1.00405 12.6058 0.833336 12.1761 0.833336H2.45387C2.02412 0.833336 1.61197 1.00405 1.30809 1.30793C1.00421 1.61181 0.833496 2.02396 0.833496 2.45371V15.4167C0.833496 15.8464 1.00421 16.2586 1.30809 16.5624C1.61197 16.8663 2.02412 17.037 2.45387 17.037ZM0.833496 28.3796C0.833496 28.8094 1.00421 29.2215 1.30809 29.5254C1.61197 29.8293 2.02412 30 2.45387 30H12.1761C12.6058 30 13.018 29.8293 13.3219 29.5254C13.6257 29.2215 13.7965 28.8094 13.7965 28.3796V21.8982C13.7965 21.4684 13.6257 21.0563 13.3219 20.7524C13.018 20.4485 12.6058 20.2778 12.1761 20.2778H2.45387C2.02412 20.2778 1.61197 20.4485 1.30809 20.7524C1.00421 21.0563 0.833496 21.4684 0.833496 21.8982V28.3796ZM17.0372 28.3796C17.0372 28.8094 17.2079 29.2215 17.5118 29.5254C17.8157 29.8293 18.2278 30 18.6576 30H28.3798C28.8095 30 29.2217 29.8293 29.5256 29.5254C29.8294 29.2215 30.0002 28.8094 30.0002 28.3796V17.037C30.0002 16.6073 29.8294 16.1951 29.5256 15.8913C29.2217 15.5874 28.8095 15.4167 28.3798 15.4167H18.6576C18.2278 15.4167 17.8157 15.5874 17.5118 15.8913C17.2079 16.1951 17.0372 16.6073 17.0372 17.037V28.3796ZM18.6576 12.1759H28.3798C28.8095 12.1759 29.2217 12.0052 29.5256 11.7013C29.8294 11.3975 30.0002 10.9853 30.0002 10.5556V2.45371C30.0002 2.02396 29.8294 1.61181 29.5256 1.30793C29.2217 1.00405 28.8095 0.833336 28.3798 0.833336H18.6576C18.2278 0.833336 17.8157 1.00405 17.5118 1.30793C17.2079 1.61181 17.0372 2.02396 17.0372 2.45371V10.5556C17.0372 10.9853 17.2079 11.3975 17.5118 11.7013C17.8157 12.0052 18.2278 12.1759 18.6576 12.1759Z" fill="#5850EC"/>
</svg>
