<svg xmlns="http://www.w3.org/2000/svg" xmlns:svgjs="http://svgjs.com/svgjs" xmlns:xlink="http://www.w3.org/1999/xlink" width="288" height="288"><svg xmlns="http://www.w3.org/2000/svg" width="288" height="288" fill="none" viewBox="2 2 20 20"><path fill="#bdbdbd" fill-rule="evenodd" d="M12 22c5.523 0 10-4.477 10-10S17.523 2 12 2 2 6.477 2 12s4.477 10 10 10Zm3-12a3 3 0 1 1-6 0 3 3 0 0 1 6 0Zm-9 7a7.489 7.489 0 0 1 6-3 7.489 7.489 0 0 1 6 3 7.489 7.489 0 0 1-6 3 7.489 7.489 0 0 1-6-3Z" class="color000 svgShape" clip-rule="evenodd"/></svg></svg>
