<svg width="31" height="31" viewBox="0 0 31 31" fill="none" xmlns="http://www.w3.org/2000/svg">
<path d="M2.81913 25.4763C1.72812 24.9825 0.833496 23.6016 0.833496 22.4078V13.1833C0.833496 11.9896 1.72812 10.6086 2.81913 10.1148L13.8465 5.12815C14.9402 4.63437 16.7268 4.63437 17.8205 5.12815L28.8479 10.1148C29.9416 10.6086 30.8335 11.9896 30.8335 13.1833V22.4078C30.8335 23.6016 29.9389 24.9825 28.8479 25.4763L17.8205 30.463C16.7268 30.9568 14.9402 30.9568 13.8465 30.463L2.81913 25.4763Z" fill="#A3A3A3"/>
<path d="M17.8202 16.8975C16.7265 17.3913 14.9399 17.3913 13.8462 16.8975L2.81884 11.9109C1.7251 11.4171 1.7251 10.6086 2.81884 10.1148L13.8462 5.12815C14.9399 4.63437 16.7265 4.63437 17.8202 5.12815L28.8476 10.1148C29.9413 10.6086 29.9413 11.4171 28.8476 11.9109L17.8202 16.8975Z" fill="#CCCCCC"/>
<path d="M20.9326 13.9077C20.6598 14.0325 20.2125 14.0325 19.9398 13.9077L9.43064 9.15713C9.15789 9.03232 9.15789 8.83155 9.43064 8.70675L10.7371 8.1153C11.0099 7.9905 11.4572 7.9905 11.7299 8.1153L22.2391 12.8686C22.5118 12.9934 22.5118 13.1942 22.2391 13.319L20.9326 13.9077Z" fill="#A3A3A3"/>
<path d="M11.5572 8.94163L14.3594 1.50786L22.5391 5.2049L19.7377 12.639L11.5572 8.94163Z" fill="white" stroke="#A3A3A3"/>
<path d="M20.0161 13.3136L23.1719 4.94366" stroke="#A3A3A3" stroke-width="2" stroke-miterlimit="10"/>
</svg>
