<svg xmlns="http://www.w3.org/2000/svg" xmlns:svgjs="http://svgjs.com/svgjs" xmlns:xlink="http://www.w3.org/1999/xlink" width="288" height="288"><svg xmlns="http://www.w3.org/2000/svg" width="288" height="288" viewBox="0 0 24 24"><path fill="#00f" d="M21 3H3a1 1 0 0 0-1 1v14a1 1 0 0 0 1 1h3a1 1 0 0 0 0-2H4V6l7.39 5.75a1 1 0 0 0 1.22 0L20 6v11h-2.21a1 1 0 0 0 0 2H21a1 1 0 0 0 1-1V4a1 1 0 0 0-1-1Zm-9 6.73L5.91 5h12.18ZM15 17h-.18l-.12-.29a1 1 0 0 0-1.42-1.42l-.28-.11V15a1 1 0 0 0-2 0v.18l-.29.12a1 1 0 0 0-1.42 1.42l-.11.28H9a1 1 0 0 0 0 2h.18l.12.29a1 1 0 0 0 0 1.42 1 1 0 0 0 1.42 0l.29.12V21a1 1 0 0 0 2 0v-.18l.29-.12a1 1 0 0 0 1.42 0 1 1 0 0 0 0-1.42l.12-.29H15a1 1 0 0 0 0-2Zm-2 1a1 1 0 1 1-1-1 1 1 0 0 1 1 1Z" class="color000 svgShape"/></svg></svg>