<svg width="23" height="30" viewBox="0 0 23 30" fill="none" xmlns="http://www.w3.org/2000/svg">
<path d="M9.40936 22.5H17.773V24.6428H9.40936V22.5ZM5.22754 22.5H7.31845V24.6428H5.22754V22.5ZM9.40936 17.1428H17.773V19.2857H9.40936V17.1428ZM5.22754 17.1428H7.31845V19.2857H5.22754V17.1428ZM9.40936 11.7857H17.773V13.9286H9.40936V11.7857ZM5.22754 11.7857H7.31845V13.9286H5.22754V11.7857Z" fill="#A3A3A3"/>
<path d="M20.9091 3.21429H17.7727V2.14286C17.7727 1.57454 17.5524 1.02949 17.1603 0.627628C16.7682 0.225765 16.2364 0 15.6818 0H7.31818C6.76364 0 6.23181 0.225765 5.83969 0.627628C5.44756 1.02949 5.22727 1.57454 5.22727 2.14286V3.21429H2.09091C1.53637 3.21429 1.00453 3.44005 0.612413 3.84191C0.220291 4.24378 0 4.78882 0 5.35714V27.8571C0 28.4255 0.220291 28.9705 0.612413 29.3724C1.00453 29.7742 1.53637 30 2.09091 30H20.9091C21.4636 30 21.9955 29.7742 22.3876 29.3724C22.7797 28.9705 23 28.4255 23 27.8571V5.35714C23 4.78882 22.7797 4.24378 22.3876 3.84191C21.9955 3.44005 21.4636 3.21429 20.9091 3.21429ZM7.31818 2.14286H15.6818V6.42857H7.31818V2.14286ZM20.9091 27.8571H2.09091V5.35714H5.22727V8.57143H17.7727V5.35714H20.9091V27.8571Z" fill="#A3A3A3"/>
</svg>
