<svg width="31" height="31" viewBox="0 0 31 31" fill="none" xmlns="http://www.w3.org/2000/svg">
<path d="M18.6478 30.8333H13.0202C12.6676 30.8334 12.3255 30.7165 12.0508 30.5021C11.7761 30.2876 11.5852 29.9885 11.5097 29.6543L10.8805 26.8283C10.0411 26.4715 9.24511 26.0253 8.50729 25.4978L5.66722 26.3753C5.33105 26.4794 4.96833 26.4687 4.63929 26.3451C4.31025 26.2215 4.03468 25.9924 3.85835 25.6958L1.03838 20.9693C0.863901 20.6725 0.798407 20.3271 0.85261 19.9895C0.906814 19.6519 1.07751 19.3421 1.33676 19.1108L3.53987 17.1608C3.43968 16.2775 3.43968 15.3862 3.53987 14.5028L1.33676 12.5573C1.07714 12.326 0.906215 12.016 0.852002 11.678C0.797789 11.3401 0.863505 10.9943 1.03838 10.6973L3.85217 5.96784C4.0285 5.67132 4.30406 5.44223 4.63311 5.31862C4.96215 5.19502 5.32487 5.18433 5.66104 5.28834L8.50111 6.16584C8.87834 5.89584 9.27104 5.64384 9.6761 5.41584C10.0672 5.20284 10.4692 5.00934 10.8805 4.83684L11.5112 2.01384C11.5863 1.67964 11.7769 1.38038 12.0513 1.16567C12.3258 0.950958 12.6676 0.833703 13.0202 0.833344H18.6478C19.0003 0.833703 19.3421 0.950958 19.6166 1.16567C19.891 1.38038 20.0816 1.67964 20.1567 2.01384L20.7937 4.83834C21.632 5.19725 22.4277 5.64336 23.1668 6.16884L26.0084 5.29134C26.3444 5.18772 26.7068 5.1986 27.0355 5.32218C27.3642 5.44577 27.6395 5.67464 27.8158 5.97084L30.6296 10.7003C30.9882 11.3108 30.8646 12.0833 30.3312 12.5588L28.1281 14.5088C28.2283 15.3922 28.2283 16.2835 28.1281 17.1668L30.3312 19.1168C30.8646 19.5938 30.9882 20.3648 30.6296 20.9753L27.8158 25.7048C27.6394 26.0014 27.3639 26.2305 27.0348 26.3541C26.7058 26.4777 26.3431 26.4884 26.0069 26.3843L23.1668 25.5068C22.4296 26.0339 21.6341 26.4796 20.7952 26.8358L20.1567 29.6543C20.0813 29.9883 19.8906 30.2872 19.6162 30.5016C19.3418 30.716 19.0001 30.8331 18.6478 30.8333ZM15.8278 9.83334C14.1876 9.83334 12.6147 10.4655 11.4549 11.5907C10.2952 12.7159 9.64363 14.242 9.64363 15.8333C9.64363 17.4246 10.2952 18.9508 11.4549 20.076C12.6147 21.2012 14.1876 21.8333 15.8278 21.8333C17.4679 21.8333 19.0409 21.2012 20.2006 20.076C21.3604 18.9508 22.0119 17.4246 22.0119 15.8333C22.0119 14.242 21.3604 12.7159 20.2006 11.5907C19.0409 10.4655 17.4679 9.83334 15.8278 9.83334Z" fill="#A3A3A3"/>
</svg>
