<svg width="30" height="22" viewBox="0 0 30 22" fill="none" xmlns="http://www.w3.org/2000/svg">
<path d="M30 14.575C30 15.4 28.5 15.95 26.75 16.225C25.625 13.8875 23.375 12.1 20.75 10.8625C21 10.45 21.25 10.175 21.5 9.7625H22.5C26.375 9.625 30 12.2375 30 14.575ZM8.5 9.625H7.5C3.625 9.625 0 12.2375 0 14.575C0 15.4 1.5 15.95 3.25 16.225C4.375 13.8875 6.625 12.1 9.25 10.8625L8.5 9.625ZM15 11C17.75 11 20 8.525 20 5.5C20 2.475 17.75 0 15 0C12.25 0 10 2.475 10 5.5C10 8.525 12.25 11 15 11ZM15 12.375C9.875 12.375 5 15.95 5 19.25C5 22 15 22 15 22C15 22 25 22 25 19.25C25 15.95 20.125 12.375 15 12.375ZM22.125 8.25H22.5C24.625 8.25 26.25 6.4625 26.25 4.125C26.25 1.7875 24.625 0 22.5 0C21.875 0 21.375 0.1375 20.875 0.4125C21.875 1.7875 22.5 3.575 22.5 5.5C22.5 6.4625 22.375 7.425 22.125 8.25ZM7.5 8.25H7.875C7.625 7.425 7.5 6.4625 7.5 5.5C7.5 3.575 8.125 1.7875 9.125 0.4125C8.625 0.1375 8.125 0 7.5 0C5.375 0 3.75 1.7875 3.75 4.125C3.75 6.4625 5.375 8.25 7.5 8.25Z" fill="#A3A3A3"/>
</svg>
