<svg width="70" height="16" viewBox="0 0 70 16" fill="none" xmlns="http://www.w3.org/2000/svg">
<path d="M5.54322 15.5145L0 0H3.53829L7.57207 11.9239L11.5826 0H15.1446L9.57696 15.5145H5.54322Z" fill="white"/>
<path d="M20.7837 15.8243C19.962 15.8375 19.1458 15.6951 18.3839 15.4057C17.622 15.1163 16.9299 14.6858 16.3487 14.1398C15.7676 13.5938 15.3094 12.9436 15.0014 12.2277C14.6934 11.5119 14.5419 10.7451 14.5559 9.97306C14.5366 9.20378 14.6857 8.43898 14.9941 7.72612C15.3025 7.01325 15.7636 6.36755 16.3487 5.82906C17.2216 5.00338 18.3358 4.43995 19.5501 4.21026C20.7643 3.98057 22.0239 4.09498 23.1688 4.53898C24.3137 4.98298 25.2925 5.73654 25.9808 6.70403C26.6691 7.67153 27.036 8.80934 27.0349 9.97306C27.0436 10.7456 26.8877 11.5119 26.5764 12.227C26.2651 12.942 25.8046 13.5913 25.222 14.1366C24.6395 14.6818 23.9468 15.1121 23.1845 15.4019C22.4223 15.6918 21.606 15.8354 20.7838 15.8243H20.7837ZM20.7837 13.0318C21.2078 13.0428 21.6297 12.9718 22.0233 12.8231C22.4169 12.6743 22.7737 12.4512 23.0716 12.1674C23.6629 11.5718 23.9917 10.7876 23.9917 9.9732C23.9917 9.15877 23.6629 8.37465 23.0716 7.77905C22.4562 7.22436 21.6364 6.91464 20.7835 6.91464C19.9307 6.91464 19.1109 7.22436 18.4954 7.77905C17.9184 8.38127 17.599 9.16289 17.599 9.9732C17.599 10.7835 17.9184 11.5651 18.4954 12.1674C18.7934 12.4512 19.1502 12.6744 19.5439 12.8231C19.9375 12.9718 20.3596 13.0429 20.7837 13.0319V13.0318Z" fill="white"/>
<path d="M29.5365 15.2486C29.2565 14.9855 29.0659 14.6504 28.9886 14.2856C28.9114 13.9207 28.9511 13.5426 29.1026 13.1989C29.2541 12.8552 29.5107 12.5615 29.8399 12.3548C30.1691 12.1482 30.5561 12.0379 30.9521 12.0379C31.348 12.0379 31.735 12.1482 32.0642 12.3548C32.3934 12.5615 32.65 12.8552 32.8016 13.1989C32.9531 13.5426 32.9928 13.9207 32.9155 14.2856C32.8383 14.6504 32.6476 14.9855 32.3677 15.2486C31.9914 15.5998 31.4825 15.797 30.9521 15.797C30.4216 15.797 29.9128 15.5998 29.5365 15.2486ZM29.749 10.3059L29.1119 4.43289V0H32.7685V4.43275L32.1551 10.3057L29.749 10.3059Z" fill="white"/>
<path d="M36.6612 14.1404C36.0816 13.5944 35.6259 12.9436 35.3219 12.2274C35.0178 11.5112 34.8715 10.7444 34.892 9.97356C34.8727 9.20022 35.0206 8.43123 35.3267 7.71313C35.6329 6.99504 36.0909 6.34277 36.6731 5.7958C37.2553 5.24883 37.9496 4.81854 38.7139 4.53095C39.4783 4.24337 40.2968 4.10447 41.1199 4.12268C42.1948 4.09915 43.256 4.35332 44.1878 4.85749C45.1196 5.36166 45.8862 6.09647 46.404 6.98183L43.7855 8.4225C43.5329 7.96112 43.1461 7.57662 42.67 7.31371C42.1939 7.05079 41.6482 6.92029 41.0963 6.93738C40.6724 6.92813 40.2511 7.00085 39.8585 7.15103C39.4658 7.30121 39.1103 7.52564 38.8138 7.81037C38.5174 8.0951 38.2864 8.43406 38.1352 8.80619C37.9841 9.17832 37.916 9.57567 37.9352 9.97356C37.9246 10.3733 37.9984 10.771 38.1522 11.1438C38.3061 11.5166 38.537 11.8571 38.8316 12.1457C39.1282 12.4236 39.4821 12.6416 39.8715 12.7864C40.261 12.9312 40.6779 12.9998 41.0965 12.9878C41.65 13.0121 42.1994 12.8873 42.68 12.6282C43.1606 12.3691 43.5524 11.9865 43.8094 11.5252L46.4513 12.9437C45.9649 13.7111 45.2995 14.3647 44.5051 14.8553C43.7108 15.3459 42.8083 15.6607 41.8656 15.7759C40.9229 15.8911 39.9647 15.8038 39.0632 15.5205C38.1617 15.2372 37.3404 14.7653 36.6612 14.1404H36.6612Z" fill="white"/>
<path d="M50.4393 11.1484C50.8402 12.5446 51.9491 13.2317 53.7656 13.2317C54.2683 13.2601 54.7709 13.1743 55.2308 12.9814C55.6907 12.7885 56.0943 12.4942 56.4075 12.1236L58.8609 13.4536C58.2914 14.2294 57.5196 14.8548 56.6191 15.27C55.7187 15.6853 54.7199 15.8763 53.7183 15.825C52.8566 15.8629 51.9957 15.7351 51.1885 15.4493C50.3812 15.1634 49.6446 14.7257 49.0239 14.1628C48.4403 13.615 47.9823 12.9607 47.678 12.2402C47.3738 11.5198 47.2297 10.7485 47.2547 9.97376C47.2333 9.20478 47.3768 8.43961 47.6767 7.72381C47.9766 7.00802 48.4267 6.35624 49.0002 5.80729C49.5808 5.24808 50.2796 4.80931 51.0516 4.51921C51.8236 4.22911 52.6517 4.09413 53.4826 4.12295C54.2812 4.09893 55.076 4.23696 55.8127 4.52764C56.5495 4.81832 57.2108 5.25481 57.7518 5.80736C58.3125 6.36289 58.751 7.01681 59.0425 7.73173C59.334 8.44665 59.4726 9.20854 59.4505 9.97383C59.4441 10.3677 59.4047 10.7605 59.3326 11.1486L50.4393 11.1484ZM56.4072 8.93223C56.2937 8.28837 55.9338 7.70561 55.3952 7.29344C54.8566 6.88126 54.1764 6.66802 53.4823 6.69377C52.765 6.64755 52.0545 6.84976 51.4851 7.2622C50.9157 7.67463 50.5268 8.26873 50.3919 8.93223H56.4072Z" fill="white"/>
<path d="M66.0567 8.79887C67.7789 9.13109 70.0199 9.90697 69.9963 12.2784C70.0221 12.7906 69.9103 13.3006 69.6712 13.7616C69.4321 14.2226 69.0734 14.6196 68.6281 14.916C67.6332 15.5446 66.4528 15.8625 65.2546 15.8246C62.8248 15.8246 61.1735 14.9383 60.3008 13.1872L62.943 11.791C63.0929 12.2444 63.4048 12.6354 63.8259 12.8978C64.2471 13.1602 64.7517 13.278 65.2546 13.2313C66.3398 13.2313 66.8826 12.9213 66.8826 12.2784C66.8826 11.6803 65.9389 11.3474 64.7359 11.0596C62.99 10.6385 60.7963 9.95149 60.7963 7.64639C60.7744 7.15339 60.8786 6.66263 61.1002 6.21527C61.3218 5.76792 61.6544 5.37702 62.07 5.07536C62.6653 4.67258 63.3418 4.38839 64.0582 4.24025C64.7746 4.09211 65.5157 4.08314 66.236 4.2139C66.9562 4.34466 67.6403 4.61239 68.2464 5.00063C68.8525 5.38888 69.3677 5.88945 69.7603 6.47158L67.1657 7.80158C67.0129 7.45377 66.7497 7.15865 66.412 6.9564C66.0743 6.75415 65.6784 6.6546 65.2783 6.67129C64.4998 6.67129 63.9101 7.0257 63.9101 7.5801C63.9101 8.17818 64.8538 8.51075 66.0567 8.79887Z" fill="white"/>
</svg>
